<svg xmlns="http://www.w3.org/2000/svg" width="512" height="512" viewBox="0 0 512 512">
  <defs>
    <radialGradient id="sea" cx="50%" cy="35%" r="75%">
      <stop offset="0%" stop-color="#8be9f0"/>
      <stop offset="100%" stop-color="#2aa7c4"/>
    </radialGradient>
  </defs>
  <rect width="512" height="512" rx="96" fill="url(#sea)"/>
  <circle cx="132" cy="120" r="26" fill="#ffffff" opacity="0.5"/>
  <circle cx="392" cy="96" r="16" fill="#ffffff" opacity="0.4"/>
  <circle cx="416" cy="168" r="10" fill="#ffffff" opacity="0.35"/>
  <path d="M168 264 L96 212 L104 300 Z" fill="#f4791f"/>
  <ellipse cx="272" cy="262" rx="112" ry="84" fill="#ff8a33"/>
  <path d="M214 190 q26 74 0 144 q-18 -8 -30 -18 q22 -54 0 -108 q14 -12 30 -18 z" fill="#ffffff"/>
  <path d="M316 188 q26 72 0 148 q18 -8 32 -20 q-22 -52 0 -106 q-14 -14 -32 -22 z" fill="#ffffff"/>
  <ellipse cx="330" cy="234" rx="30" ry="32" fill="#ffffff"/>
  <circle cx="338" cy="236" r="16" fill="#26323c"/>
  <circle cx="344" cy="229" r="6" fill="#ffffff"/>
  <path d="M364 288 q22 8 34 -6" stroke="#d65f14" stroke-width="10" fill="none" stroke-linecap="round"/>
  <circle cx="416" cy="300" r="22" fill="none" stroke="#ffffff" stroke-width="7" opacity="0.85"/>
  <circle cx="444" cy="352" r="13" fill="none" stroke="#ffffff" stroke-width="5" opacity="0.7"/>
  <circle cx="176" cy="382" r="20" fill="#ffe9a8"/>
  <circle cx="176" cy="382" r="20" fill="none" stroke="#ffffff" stroke-width="4" opacity="0.8"/>
</svg>
